<?xml version="1.0" standalone="no"?>
<!DOCTYPE svg PUBLIC "-//W3C//DTD SVG 20010904//EN"
 "http://www.w3.org/TR/2001/REC-SVG-20010904/DTD/svg10.dtd">
<svg version="1.0" xmlns="http://www.w3.org/2000/svg"
 width="832.000000pt" height="832.000000pt" viewBox="0 0 832.000000 832.000000"
 preserveAspectRatio="xMidYMid meet">
<metadata>
Created by potrace 1.14, written by Peter Selinger 2001-2017
</metadata>
<g transform="translate(0.000000,832.000000) scale(0.100000,-0.100000)"
fill="#000000" stroke="none">
<path d="M161 8140 c-3 -3 -6 -1816 -6 -4030 l0 -4025 1990 0 c1779 0 2115 3
2236 19 19 3 68 8 109 11 41 3 84 8 95 10 26 6 89 15 145 21 25 3 52 7 60 9 8
2 38 7 65 11 28 3 59 8 70 11 11 2 34 7 50 9 17 3 48 10 70 15 22 6 49 12 60
14 36 6 310 77 320 83 6 4 18 8 27 9 9 2 36 10 60 18 24 9 52 18 62 20 11 3
51 17 90 31 38 15 76 27 83 27 7 0 13 4 13 9 0 4 6 8 14 8 29 0 413 173 427
193 3 5 10 9 15 8 19 0 235 126 379 222 93 63 303 220 342 256 12 12 27 21 33
21 6 0 8 5 5 10 -3 6 -2 10 3 10 30 0 311 290 447 460 33 41 63 77 68 78 4 2
7 8 7 14 0 5 6 16 13 23 32 37 46 58 143 208 57 89 104 167 104 173 0 7 4 14
8 16 10 3 113 203 165 318 35 78 114 284 122 316 2 11 14 46 25 79 11 32 22
68 24 80 3 11 18 72 35 135 17 63 33 129 36 145 2 17 6 39 9 50 5 30 26 146
30 175 3 14 5 25 6 25 1 0 3 18 5 40 1 22 5 58 9 80 8 55 16 154 21 241 1 40
5 76 7 81 7 13 2 461 -6 553 -12 136 -16 183 -20 220 -7 59 -16 124 -21 150
-3 14 -7 43 -10 65 -3 22 -12 76 -21 120 -8 44 -18 91 -20 105 -3 14 -10 43
-16 65 -5 22 -12 49 -14 60 -6 34 -76 261 -94 310 -5 11 -18 47 -31 80 -19 53
-32 83 -69 170 -4 11 -25 56 -45 100 -21 44 -36 80 -35 80 2 0 -8 18 -21 40
-14 22 -38 66 -54 97 -17 32 -33 58 -37 58 -5 0 -8 4 -8 10 0 10 -90 161 -101
170 -3 3 -12 16 -19 29 -7 14 -17 30 -22 35 -5 6 -36 49 -70 96 -155 216 -407
485 -593 633 -11 9 -38 31 -61 49 -22 19 -74 58 -115 88 -41 30 -75 58 -77 62
-2 5 -8 8 -14 8 -6 0 -26 11 -44 25 -18 14 -37 25 -42 25 -6 0 -12 4 -14 8 -5
13 -178 117 -293 176 -33 18 -67 36 -75 41 -8 5 -17 10 -20 11 -3 0 -63 29
-135 63 -71 35 -134 64 -140 65 -5 1 -19 7 -30 13 -11 6 -67 29 -125 51 -58
22 -114 43 -125 48 -11 4 -22 8 -25 9 -3 0 -30 10 -60 20 -30 11 -59 20 -65
21 -5 0 -35 8 -65 18 -81 26 -231 66 -263 71 -15 2 -32 7 -37 10 -5 3 -28 8
-52 11 -24 4 -48 10 -54 15 -6 5 -13 7 -15 4 -3 -2 -35 2 -73 10 -37 8 -86 17
-109 20 -23 3 -55 8 -72 11 -45 8 -84 13 -140 20 -27 3 -63 7 -80 9 -75 10
-239 24 -380 31 -126 7 -3965 11 -3974 4z m3754 -1534 c138 -6 241 -14 270
-20 11 -3 46 -8 78 -11 32 -4 68 -9 80 -11 12 -3 32 -7 45 -10 12 -2 32 -6 45
-8 12 -3 33 -8 47 -11 14 -3 36 -7 50 -10 14 -3 50 -12 80 -20 30 -9 62 -18
70 -20 173 -44 457 -173 630 -285 55 -35 187 -132 232 -170 63 -52 271 -260
311 -310 15 -19 37 -46 49 -60 19 -23 59 -80 83 -119 6 -9 12 -18 15 -21 12
-11 118 -199 125 -221 4 -13 11 -26 15 -29 12 -9 123 -300 114 -300 -3 0 0 -9
6 -21 6 -11 13 -28 15 -37 2 -9 10 -44 19 -77 15 -58 25 -109 31 -150 2 -11 4
-20 5 -20 2 0 4 -11 5 -25 1 -14 5 -41 8 -60 7 -35 11 -68 23 -195 24 -235 -1
-702 -46 -875 -5 -19 -11 -48 -13 -65 -3 -16 -15 -66 -27 -110 -12 -44 -23
-84 -25 -90 -1 -5 -7 -23 -14 -40 -7 -16 -15 -42 -18 -57 -3 -16 -8 -28 -12
-28 -4 0 -7 -9 -8 -21 -1 -11 -36 -88 -77 -172 -90 -183 -178 -318 -306 -471
-30 -36 -194 -200 -236 -236 -299 -259 -711 -456 -1117 -536 -10 -2 -26 -6
-35 -8 -9 -3 -33 -8 -52 -10 -19 -3 -51 -8 -70 -11 -37 -7 -81 -12 -170 -21
-30 -2 -71 -7 -90 -10 -19 -3 -483 -8 -1031 -10 l-996 -4 0 2493 c0 1370 1
2497 4 2502 3 10 1657 11 1888 1z"/>
</g>
</svg>
