<svg width="28" height="28" viewBox="0 0 28 28" fill="none" xmlns="http://www.w3.org/2000/svg">
<path d="M14 28C11.2311 28 8.52431 27.1789 6.22202 25.6406C3.91973 24.1022 2.12532 21.9157 1.06569 19.3576C0.00606593 16.7994 -0.271181 13.9845 0.269012 11.2687C0.809205 8.55301 2.14258 6.05845 4.10051 4.10051C6.05845 2.14258 8.55301 0.809205 11.2687 0.269012C13.9845 -0.271181 16.7994 0.00606593 19.3576 1.06569C21.9157 2.12532 24.1022 3.91973 25.6406 6.22202C27.1789 8.52431 28 11.2311 28 14C28 17.713 26.525 21.274 23.8995 23.8995C21.274 26.525 17.713 28 14 28V28ZM14 1.75001C11.5772 1.75001 9.20877 2.46846 7.19427 3.8145C5.17977 5.16055 3.60966 7.07374 2.68248 9.31213C1.75531 11.5505 1.51272 14.0136 1.98539 16.3899C2.45806 18.7661 3.62475 20.9489 5.33795 22.6621C7.05114 24.3753 9.23388 25.542 11.6102 26.0146C13.9864 26.4873 16.4495 26.2447 18.6879 25.3175C20.9263 24.3904 22.8395 22.8202 24.1855 20.8057C25.5316 18.7912 26.25 16.4228 26.25 14C26.25 10.7511 24.9594 7.63527 22.6621 5.33795C20.3647 3.04063 17.2489 1.75001 14 1.75001V1.75001Z" fill="black"/>
<path d="M14.0002 18.375C13.885 18.3756 13.7708 18.3535 13.6642 18.31C13.5576 18.2665 13.4607 18.2023 13.3789 18.1212L7.25391 11.9962L8.48766 10.7625L14.0002 16.2662L19.5039 10.7625L20.7377 11.9962L14.6127 18.1212C14.4497 18.2829 14.2297 18.374 14.0002 18.375Z" fill="black"/>
</svg>
