<svg width="24" height="30" viewBox="0 0 24 30" fill="none" xmlns="http://www.w3.org/2000/svg">
<path d="M23.6 27.5333C23.6 28.6139 22.7236 29.5 21.6381 29.5H1.96194C0.881248 29.5 0 28.6172 0 27.5333C0 21.0164 5.28304 15.7333 11.8 15.7333C18.317 15.7333 23.6 21.0164 23.6 27.5333ZM11.8 18.3556C6.95167 18.3556 2.98141 22.115 2.64527 26.8778H20.9547C20.6186 22.115 16.6483 18.3556 11.8 18.3556ZM11.8 14.4222C7.81741 14.4222 4.58889 11.1937 4.58889 7.21111C4.58889 3.22852 7.81741 0 11.8 0C15.7826 0 19.0111 3.22852 19.0111 7.21111C19.0111 11.1937 15.7826 14.4222 11.8 14.4222ZM11.8 11.8C14.3344 11.8 16.3889 9.74548 16.3889 7.21111C16.3889 4.67674 14.3344 2.62222 11.8 2.62222C9.26563 2.62222 7.21111 4.67674 7.21111 7.21111C7.21111 9.74548 9.26563 11.8 11.8 11.8Z" fill="black" fill-opacity="0.5"/>
</svg>
