<svg width="72" height="101" viewBox="0 0 72 101" fill="none" xmlns="http://www.w3.org/2000/svg">
<path d="M35.608 100.6L6.63339 92.5564L0.176514 20.135H71.1264L64.6627 92.545L35.608 100.6Z" fill="#264DE4"/>
<path d="M59.1289 87.9341L64.6526 26.0564H35.6514V94.443L59.1289 87.9341Z" fill="#2965F1"/>
<path d="M14.9788 52.9165L15.7748 61.7986H35.6515V52.9165H14.9788Z" fill="#EBEBEB"/>
<path d="M13.3792 34.9387L14.1866 43.821H35.6515V34.9387H13.3792Z" fill="#EBEBEB"/>
<path d="M35.6514 75.9844L35.6125 75.9948L25.7203 73.3237L25.0879 66.2397H16.1716L17.416 80.1861L35.6105 85.237L35.6514 85.2256V75.9844Z" fill="#EBEBEB"/>
<path d="M16.874 0.453857H27.6319V4.9526H21.3728V9.45135H27.6319V13.9501H16.874V0.453857Z" fill="black"/>
<path d="M29.7834 0.453857H40.5413V4.36581H34.2822V5.1482H40.5413V14.1457H29.7834V10.0381H36.0426V9.25575H29.7834V0.453857Z" fill="black"/>
<path d="M42.6931 0.453857H53.451V4.36581H47.1919V5.1482H53.451V14.1457H42.6931V10.0381H48.9522V9.25575H42.6931V0.453857Z" fill="black"/>
<path d="M56.2674 52.9165L57.8709 34.9387H35.6208V43.821H48.1368L47.3285 52.9165H35.6208V61.7986H46.5583L45.5273 73.3181L35.6208 75.9919V85.2327L53.8298 80.1861L53.9634 78.6855L56.0506 55.3016L56.2674 52.9165Z" fill="white"/>
</svg>
