<svg width="55" height="82" viewBox="0 0 55 82" fill="none" xmlns="http://www.w3.org/2000/svg">
<path d="M13.75 82.0001C21.34 82.0001 27.5 75.8774 27.5 68.3334V54.6667H13.75C6.16 54.6667 0 60.7894 0 68.3334C0 75.8774 6.16 82.0001 13.75 82.0001Z" fill="#0ACF83"/>
<path d="M0 40.9999C0 33.4559 6.16 27.3333 13.75 27.3333H27.5V54.6666H13.75C6.16 54.6666 0 48.5439 0 40.9999Z" fill="#A259FF"/>
<path d="M0 13.6667C0 6.12267 6.16 0 13.75 0H27.5V27.3333H13.75C6.16 27.3333 0 21.2107 0 13.6667Z" fill="#F24E1E"/>
<path d="M27.5 0H41.25C48.84 0 55 6.12267 55 13.6667C55 21.2107 48.84 27.3333 41.25 27.3333H27.5V0Z" fill="#FF7262"/>
<path d="M55 40.9999C55 48.5439 48.84 54.6666 41.25 54.6666C33.66 54.6666 27.5 48.5439 27.5 40.9999C27.5 33.4559 33.66 27.3333 41.25 27.3333C48.84 27.3333 55 33.4559 55 40.9999Z" fill="#1ABCFE"/>
</svg>
