<svg width="94" height="94" viewBox="0 0 94 94" fill="none" xmlns="http://www.w3.org/2000/svg">
<path d="M91.9024 42.5837L51.0791 1.76351C48.7298 -0.587835 44.9166 -0.587835 42.5642 1.76351L34.0873 10.2404L44.8407 20.9938C47.3398 20.1495 50.2051 20.7158 52.1973 22.7081C54.1989 24.7127 54.7611 27.6026 53.8962 30.1099L64.2598 40.4734C66.767 39.6096 69.6601 40.1687 71.6626 42.1744C74.4612 44.972 74.4612 49.5064 71.6626 52.306C68.8629 55.1057 64.3285 55.1057 61.5278 52.306C59.4227 50.1989 58.9026 47.1068 59.9685 44.5134L50.3036 34.8485L50.3025 60.2823C50.9847 60.6209 51.629 61.0713 52.1973 61.6375C54.996 64.4351 54.996 68.9696 52.1973 71.7713C49.3977 74.5699 44.8612 74.5699 42.0657 71.7713C39.267 68.9696 39.267 64.4351 42.0657 61.6375C42.7571 60.9471 43.5573 60.4249 44.4108 60.0741V34.4032C43.5573 34.0544 42.7581 33.5353 42.0657 32.8398C39.9451 30.7223 39.4353 27.6108 40.5217 25.0071L29.9222 14.4056L1.93078 42.3949C-0.421588 44.7483 -0.421588 48.5615 1.93078 50.9129L42.754 91.7341C45.1043 94.0854 48.9166 94.0854 51.2699 91.7341L91.9024 51.1027C94.2537 48.7503 94.2537 44.935 91.9024 42.5837Z" fill="#DE4C36"/>
</svg>
