<svg width="36" height="38" viewBox="0 0 36 38" fill="none" xmlns="http://www.w3.org/2000/svg">
<path d="M36 13.9688C35.9908 11.5656 35.1518 9.23748 33.6218 7.36939C34.1412 5.23358 33.9791 2.99132 33.1578 0.95014C33.0779 0.756173 32.9554 0.582133 32.7992 0.440552C32.6431 0.298971 32.457 0.193372 32.2546 0.131358C31.6746 -0.0651493 29.4787 -0.433601 25.0041 2.43213C23.0797 1.93028 21.0943 1.69333 19.1043 1.72798C17.1115 1.69289 15.1234 1.92984 13.1962 2.43213C8.60557 -0.499104 6.21912 -0.0242106 5.73851 0.114982C5.53496 0.179767 5.34842 0.288239 5.19227 0.432625C5.03612 0.57701 4.91422 0.753736 4.83531 0.95014C4.01197 2.98468 3.84413 5.22071 4.3547 7.35301C2.77472 9.21175 1.93245 11.5747 1.98483 14.0015C1.98483 23.0572 7.23004 25.792 12.0361 26.7581C11.7894 27.3543 11.6196 27.9787 11.5306 28.6168C11.522 28.6847 11.522 28.7535 11.5306 28.8215V31.3269C7.15547 31.6872 6.21912 29.1572 6.12797 28.8706C6.10676 28.8038 6.08187 28.7382 6.05339 28.6741C5.20834 26.9704 3.72078 25.6622 1.91025 25.0305C1.54544 24.91 1.14712 24.9376 0.802915 25.1073C0.458709 25.2769 0.196814 25.5748 0.0748437 25.9353C-0.0471262 26.2957 -0.0191791 26.6893 0.152535 27.0294C0.32425 27.3696 0.625666 27.6283 0.990477 27.7489C1.9938 28.107 2.8305 28.8144 3.34378 29.7385C3.92382 31.5971 6.29369 34.5366 11.514 34.209V36.5671C11.514 36.9472 11.6668 37.3116 11.9388 37.5803C12.2107 37.849 12.5796 38 12.9641 38C13.3487 38 13.7176 37.849 13.9895 37.5803C14.2615 37.3116 14.4142 36.9472 14.4142 36.5671V28.9279C14.5243 28.0937 14.8917 27.3132 15.4666 26.6926C15.668 26.5064 15.8111 26.2669 15.8789 26.0027C15.9467 25.7385 15.9363 25.4606 15.8491 25.202C15.7619 24.9434 15.6014 24.715 15.3867 24.5438C15.1721 24.3726 14.9122 24.2659 14.638 24.2363C9.58335 23.6549 4.90989 22.0092 4.90989 13.9442C4.87629 12.9707 5.04746 12.0009 5.41259 11.0961C5.77772 10.1913 6.32887 9.37118 7.03117 8.68762C7.22004 8.48677 7.35053 8.23925 7.40887 7.9712C7.46721 7.70315 7.45123 7.42451 7.36262 7.16469C6.87447 5.76306 6.84259 4.24559 7.27147 2.82515C9.05073 3.22209 10.7216 3.99591 12.1687 5.09317C12.3546 5.21477 12.5659 5.29337 12.7868 5.32314C13.0078 5.35291 13.2326 5.33308 13.4448 5.26512C15.2859 4.71138 17.2053 4.45427 19.1291 4.50365C21.0503 4.45415 22.967 4.71128 24.8052 5.26512C25.0173 5.33368 25.2422 5.35382 25.4633 5.32404C25.6843 5.29426 25.8956 5.21532 26.0813 5.09317C27.4751 4.03795 29.0704 3.27206 30.7714 2.84152C31.1938 4.27768 31.1562 5.80782 30.6636 7.222C30.5825 7.458 30.5658 7.71096 30.6153 7.95536C30.6648 8.19975 30.7786 8.42692 30.9454 8.61393C32.3172 10.0612 33.0941 11.9615 33.1247 13.9442C33.1247 21.9928 28.2109 23.6631 23.3966 24.2363C23.1083 24.268 22.8365 24.3848 22.6165 24.5715C22.3965 24.7582 22.2386 25.0062 22.1634 25.283C22.0882 25.5597 22.0993 25.8525 22.1951 26.1229C22.2909 26.3934 22.4671 26.629 22.7005 26.7991C23.2143 27.1839 23.8109 28.2647 23.8109 30.0742V36.5589C23.8109 36.939 23.9637 37.3034 24.2356 37.5721C24.5076 37.8409 24.8764 37.9918 25.261 37.9918C25.6456 37.9918 26.0144 37.8409 26.2864 37.5721C26.5583 37.3034 26.7111 36.939 26.7111 36.5589V30.0742C26.7262 28.9339 26.5151 27.8018 26.0896 26.7418C29.9842 25.923 36 23.3929 36 13.9688Z" fill="white"/>
</svg>
