<svg width="32" height="32" viewBox="0 0 32 32" fill="none" xmlns="http://www.w3.org/2000/svg">
<path fill-rule="evenodd" clip-rule="evenodd" d="M16 0C7.17714 0 0 7.17771 0 16C0 24.8223 7.17714 32 16 32C24.8229 32 32 24.8223 32 16C32 7.17771 24.8229 0 16 0ZM22.8571 23.4286H9.14286C8.512 23.4286 8 22.9166 8 22.2857C8 21.6549 8.512 21.1429 9.14286 21.1429H22.8571C23.4886 21.1429 24 21.6549 24 22.2857C24 22.9166 23.4886 23.4286 22.8571 23.4286ZM22.8571 17.1429H9.14286C8.512 17.1429 8 16.6309 8 16C8 15.3691 8.512 14.8571 9.14286 14.8571H22.8571C23.4886 14.8571 24 15.3691 24 16C24 16.6309 23.4886 17.1429 22.8571 17.1429ZM22.8571 10.8571H9.14286C8.512 10.8571 8 10.3451 8 9.71429C8 9.08343 8.512 8.57143 9.14286 8.57143H22.8571C23.4886 8.57143 24 9.08343 24 9.71429C24 10.3451 23.4886 10.8571 22.8571 10.8571Z" fill="#3913B8"/>
</svg>
