<svg width="74" height="104" viewBox="0 0 74 104" fill="none" xmlns="http://www.w3.org/2000/svg">
<path d="M73.1765 20.2524L66.5251 94.7649L36.6269 103.054L6.81097 94.7766L0.166626 20.2524H73.1765Z" fill="#E44D26"/>
<path d="M36.6716 96.7181L60.8309 90.0202L66.5149 26.3459H36.6716V96.7181Z" fill="#F16529"/>
<path d="M23.7415 44.6263H36.6715V35.4861H13.7526L13.9714 37.9382L16.2178 63.1258H36.6715V53.9858H24.5768L23.7415 44.6263Z" fill="#EBEBEB"/>
<path d="M25.8014 67.696H16.6262L17.9067 82.0473L36.6295 87.2448L36.6716 87.2332V77.7237L36.6315 77.7343L26.4521 74.9857L25.8014 67.696Z" fill="#EBEBEB"/>
<path d="M6.95947 0H11.6043V4.58911H15.8533V0H20.4984V13.8969H15.8535V9.24343H11.6045V13.8969H6.95967V0H6.95947Z" fill="black"/>
<path d="M26.6066 4.60843H22.5175V0H35.3428V4.60843H31.2519V13.8969H26.6068V4.60843H26.6066Z" fill="black"/>
<path d="M37.3783 0H42.2216L45.2009 4.88297L48.1772 0H53.0223V13.8969H48.3966V7.00886L45.2009 11.95H45.121L41.9231 7.00886V13.8969H37.3783V0Z" fill="black"/>
<path d="M55.334 0H59.9803V9.30341H66.5123V13.8969H55.334V0Z" fill="black"/>
<path d="M36.64 63.1258H47.895L46.8341 74.9798L36.64 77.7313V87.2404L55.3777 82.0472L55.5151 80.503L57.663 56.4402L57.886 53.9858H36.64V63.1258Z" fill="white"/>
<path d="M36.64 44.6039V44.6263H58.7177L58.901 42.5718L59.3175 37.9382L59.536 35.4861H36.64V44.6039Z" fill="white"/>
</svg>
