<svg width="101" height="99" viewBox="0 0 101 99" fill="none" xmlns="http://www.w3.org/2000/svg">
<path d="M0.83252 0H100.833V99H0.83252V0Z" fill="#F7DF1E"/>
<path d="M27.1261 82.7317L34.7788 78.1468C36.2552 80.7382 37.5982 82.9308 40.8196 82.9308C43.9076 82.9308 45.8544 81.735 45.8544 77.0836V45.4507H55.2518V77.2151C55.2518 86.8511 49.5465 91.2371 41.2225 91.2371C33.7049 91.2371 29.3411 87.3825 27.126 82.731" fill="black"/>
<path d="M60.3564 81.7348L68.0082 77.3487C70.0225 80.6054 72.6404 82.9976 77.2718 82.9976C81.1657 82.9976 83.6487 81.0702 83.6487 78.412C83.6487 75.2221 81.098 74.0923 76.8018 72.2322L74.4531 71.2346C67.673 68.3776 63.1753 64.7891 63.1753 57.2131C63.1753 50.2353 68.5453 44.9187 76.9364 44.9187C82.9107 44.9187 87.2068 46.979 90.2942 52.3619L82.9774 57.0135C81.3663 54.1562 79.6215 53.0266 76.9366 53.0266C74.1844 53.0266 72.439 54.7544 72.439 57.0135C72.439 59.8047 74.1844 60.9347 78.2115 62.6626L80.5607 63.6594C88.5488 67.0488 93.0464 70.5041 93.0464 78.279C93.0464 86.6529 86.4011 91.2378 77.4734 91.2378C68.7471 91.2378 63.1084 87.1178 60.3566 81.7348" fill="black"/>
</svg>
