<svg width="36" height="36" viewBox="0 0 36 36" fill="none" xmlns="http://www.w3.org/2000/svg">
<path d="M5.02325 0C2.2589 0 0 2.2589 0 5.02325C0 7.78759 2.2589 10.0465 5.02325 10.0465C7.78759 10.0465 10.0465 7.78759 10.0465 5.02325C10.0465 2.2589 7.78759 0 5.02325 0ZM5.02325 1.67442C6.88267 1.67442 8.37208 3.16382 8.37208 5.02325C8.37208 6.88267 6.88267 8.37208 5.02325 8.37208C3.16382 8.37208 1.67442 6.88267 1.67442 5.02325C1.67442 3.16382 3.16382 1.67442 5.02325 1.67442ZM26.7906 10.8837C24.1138 10.8837 22.2943 12.022 20.9302 13.3299V12.5581C20.9301 12.1198 20.5313 11.721 20.093 11.7209H13.3953C12.957 11.721 12.5582 12.1198 12.5581 12.5581V35.1627C12.5582 35.6011 12.957 35.9999 13.3953 35.9999H20.5116C20.9499 35.9999 21.3488 35.6011 21.3488 35.1627V22.6046C21.3488 21.5451 21.6827 20.5409 22.1729 19.8575C22.6631 19.1741 23.2557 18.8372 23.8604 18.8372H24.6976C25.3024 18.8372 25.8949 19.1741 26.3851 19.8575C26.8753 20.5409 27.2092 21.5451 27.2092 22.6046V35.1627C27.2093 35.6011 27.6081 35.9999 28.0465 35.9999H35.1627C35.6011 35.9999 35.9999 35.6011 35.9999 35.1627V30.5581C36.0062 30.1158 35.6051 29.7089 35.1627 29.7089C34.7204 29.7089 34.3193 30.1158 34.3255 30.5581V34.3255H28.8837V22.6046C28.8837 21.2059 28.466 19.8939 27.7456 18.8895C27.0252 17.8851 25.9481 17.1628 24.6976 17.1628H23.8604C22.6099 17.1628 21.5329 17.8851 20.8125 18.8895C20.092 19.8939 19.6744 21.2059 19.6744 22.6046V27.6279C19.5114 27.6277 19.3345 27.6279 19.1773 27.6279C18.7389 27.6483 18.3586 28.0659 18.3792 28.5043C18.3997 28.9427 18.8174 29.3229 19.2558 29.3023H19.6744V30.9767C19.5114 30.9766 19.3345 30.9767 19.1773 30.9767C18.7389 30.9971 18.3586 31.4147 18.3792 31.8531C18.3997 32.2916 18.8174 32.6717 19.2558 32.6511H19.6744V34.3255H14.2325V13.3953H19.2558V15.4883C19.2556 15.8327 19.4909 16.1648 19.8159 16.2788C20.1408 16.3928 20.532 16.2806 20.7471 16.0116C22.1526 14.2592 23.6504 12.5581 26.7906 12.5581C29.7937 12.5581 31.586 13.3301 32.7034 14.6381C33.8209 15.946 34.3255 17.9353 34.3255 20.5116V27.2092C34.3193 27.6516 34.7204 28.0584 35.1627 28.0584C35.6051 28.0584 36.0062 27.6516 35.9999 27.2092V20.5116C35.9999 17.7208 35.4767 15.2979 33.9854 13.5523C32.4941 11.8067 30.0966 10.8837 26.7906 10.8837ZM1.59593 11.7209C1.18437 11.7597 0.835425 12.1447 0.837208 12.5581V35.1627C0.837251 35.6011 1.23607 35.9999 1.67442 35.9999H8.79068C9.22903 35.9999 9.62784 35.6011 9.62789 35.1627V12.5581C9.62784 12.1198 9.22903 11.721 8.79068 11.7209C6.3949 11.7209 3.98584 11.7209 1.59593 11.7209ZM2.51162 13.3953H7.95347V27.6279C7.79044 27.6277 7.61359 27.6279 7.45638 27.6279C7.01796 27.6483 6.6377 28.0659 6.65825 28.5043C6.6788 28.9427 7.09646 29.3229 7.53487 29.3023H7.95347V30.9767C7.79044 30.9766 7.61359 30.9767 7.45638 30.9767C7.01796 30.9971 6.6377 31.4147 6.65825 31.8531C6.6788 32.2916 7.09646 32.6717 7.53487 32.6511H7.95347V34.3255H2.51162V13.3953Z" fill="white"/>
</svg>
