<svg width="92" height="42" viewBox="0 0 92 42" fill="none" xmlns="http://www.w3.org/2000/svg">
<path d="M4 2H2V4V37.6V39.6H4H19.264C23.1659 39.6 26.6944 38.863 29.7982 37.329L29.8064 37.3249C32.9338 35.7612 35.4005 33.5453 37.1445 30.6782C38.9301 27.7959 39.792 24.4796 39.792 20.8C39.792 17.1203 38.9301 13.804 37.1445 10.9217C35.4002 8.05429 32.9322 5.85301 29.8024 4.32108C26.6978 2.75363 23.1674 2 19.264 2H4ZM25.5173 14.6648L25.5292 14.6762L25.5414 14.6874C27.0762 16.1004 27.92 18.0565 27.92 20.8C27.92 23.5427 27.0761 25.5232 25.5289 26.9722C23.9983 28.4037 21.8582 29.216 18.88 29.216H13.776V12.384H18.88C21.8495 12.384 23.9854 13.2071 25.5173 14.6648ZM53.2562 2H51.2562V4V37.6V39.6H53.2562H68.5202C72.4222 39.6 75.9506 38.863 79.0544 37.329L79.0627 37.3249C82.1898 35.7613 84.6564 33.5456 86.4004 30.6788C88.1862 27.7964 89.0482 24.4799 89.0482 20.8C89.0482 17.1201 88.1862 13.8036 86.4004 10.9211C84.6562 8.05404 82.1883 5.85298 79.0588 4.32115C75.9541 2.75365 72.4238 2 68.5202 2H53.2562ZM74.7735 14.6648L74.7855 14.6762L74.7976 14.6874C76.3324 16.1004 77.1762 18.0565 77.1762 20.8C77.1762 23.5423 76.3326 25.5226 74.7859 26.9715C73.2553 28.4034 71.1149 29.216 68.1362 29.216H63.0322V12.384H68.1362C71.1058 12.384 73.2417 13.2071 74.7735 14.6648Z" stroke="#3913B8" stroke-width="4"/>
</svg>
