<svg width="92" height="42" viewBox="0 0 92 42" fill="none" xmlns="http://www.w3.org/2000/svg">
<path d="M25.5292 14.6762L25.5173 14.6648C23.9854 13.2071 21.8495 12.384 18.88 12.384H13.776V29.216H18.88C21.8581 29.216 23.9983 28.4037 25.5289 26.9722L25.5292 14.6762ZM25.5292 14.6762L25.5414 14.6874M25.5292 14.6762L25.5414 14.6874M25.5414 14.6874C27.0762 16.1004 27.92 18.0565 27.92 20.8C27.92 23.5427 27.0761 25.5232 25.5289 26.9722L25.5414 14.6874ZM4 2H2V4V37.6V39.6H4H19.264C23.1659 39.6 26.6944 38.863 29.7982 37.329L29.8064 37.3249C32.9338 35.7612 35.4005 33.5453 37.1445 30.6782C38.9301 27.7959 39.792 24.4796 39.792 20.8C39.792 17.1203 38.9301 13.804 37.1445 10.9217C35.4002 8.05429 32.9322 5.85301 29.8024 4.32108C26.6978 2.75363 23.1674 2 19.264 2H4ZM53.2562 2H51.2562V4V37.6V39.6H53.2562H68.5202C72.4222 39.6 75.9507 38.863 79.0544 37.329L79.0627 37.3249C82.1901 35.7612 84.6568 33.5453 86.4008 30.6782C88.1864 27.7959 89.0482 24.4796 89.0482 20.8C89.0482 17.1203 88.1863 13.804 86.4008 10.9217C84.6565 8.05433 82.1885 5.85307 79.0588 4.32114C75.9541 2.75365 72.4238 2 68.5202 2H53.2562ZM74.7735 14.6648L74.7855 14.6762L74.7976 14.6874C76.3324 16.1004 77.1762 18.0565 77.1762 20.8C77.1762 23.5423 76.3326 25.5226 74.7859 26.9715C73.2553 28.4034 71.1149 29.216 68.1362 29.216H63.0322V12.384H68.1362C71.1058 12.384 73.2417 13.2071 74.7735 14.6648Z" stroke="#3913B8" stroke-width="4"/>
</svg>
