<svg width="36" height="36" viewBox="0 0 36 36" fill="none" xmlns="http://www.w3.org/2000/svg">
<path fill-rule="evenodd" clip-rule="evenodd" d="M0.751284 26.6169L4.75813 22.7532C5.90295 21.6084 7.47706 21.6084 8.47878 22.7532L12.3425 26.4738C15.2046 26.0445 18.4959 24.3273 21.3579 21.4653C24.3631 18.4601 26.0803 15.1688 26.5096 12.3067L22.7889 8.5861C21.7872 7.44129 21.7872 5.86717 22.7889 4.86546L26.7958 0.85861C27.7975 -0.286203 29.5147 -0.286203 30.5164 0.85861C31.8044 2.14653 33.2354 3.43444 34.5233 4.86546C38.387 8.7292 34.2371 18.317 27.082 25.7583C19.6407 33.4858 9.05118 38.6375 4.75813 34.3444C3.47022 33.0565 2.1823 31.7686 0.751284 30.3376C-0.250428 29.3358 -0.250428 27.7617 0.751284 26.6169Z" fill="white"/>
</svg>
