<svg width="110" height="98" viewBox="0 0 110 98" fill="none" xmlns="http://www.w3.org/2000/svg">
<path d="M90.0298 31.5765C88.8939 31.1855 87.7168 30.8156 86.5049 30.4657C86.7041 29.6528 86.8869 28.8503 87.0495 28.0616C89.7177 15.1095 87.9731 4.67518 82.0158 1.23977C76.3035 -2.05434 66.9615 1.3803 57.5265 9.59129C56.6192 10.3809 55.7094 11.2168 54.8 12.0929C54.194 11.5133 53.589 10.9531 52.9856 10.4173C43.0974 1.63757 33.1861 -2.06233 27.2346 1.38302C21.5278 4.68668 19.8377 14.4959 22.2395 26.7707C22.4715 27.9563 22.7426 29.1671 23.0492 30.3981C21.6465 30.7963 20.2922 31.2208 18.9965 31.6724C7.4037 35.7141 0 42.0486 0 48.6191C0 55.4051 7.94788 62.2116 20.0227 66.3387C20.9756 66.6644 21.9643 66.9724 22.9833 67.2647C22.6526 68.5962 22.3649 69.9008 22.1234 71.1734C19.8332 83.2351 21.6217 92.8126 27.3133 96.0954C33.1923 99.4856 43.0588 96.0009 52.6663 87.6028C53.4257 86.9389 54.1878 86.2349 54.9512 85.497C55.9407 86.4499 56.9287 87.3517 57.9114 88.1976C67.2174 96.2057 76.4086 99.4394 82.095 96.1475C87.9681 92.7475 89.8768 82.459 87.3988 69.9414C87.2095 68.9854 86.9893 68.0087 86.7419 67.0147C87.4348 66.8098 88.115 66.5984 88.7783 66.3785C101.331 62.2194 109.499 55.4957 109.499 48.6191C109.499 42.0248 101.856 35.6477 90.0298 31.5765ZM87.3072 61.9384C86.7084 62.1366 86.0941 62.3282 85.468 62.5139C84.0822 58.1268 82.2119 53.4617 79.9231 48.6419C82.1073 43.9368 83.9053 39.3314 85.2523 34.9727C86.3724 35.2969 87.4596 35.6387 88.5072 35.9995C98.64 39.4877 104.821 44.6451 104.821 48.6191C104.821 52.852 98.1457 58.347 87.3072 61.9384ZM82.8099 70.8498C83.9057 76.385 84.0622 81.3894 83.3363 85.3015C82.6842 88.8169 81.3727 91.1606 79.751 92.0993C76.3002 94.0967 68.9207 91.5003 60.9621 84.6517C60.0497 83.8666 59.1308 83.0283 58.2089 82.1411C61.2942 78.7667 64.3778 74.8439 67.3874 70.4871C72.6808 70.0174 77.6819 69.2495 82.2172 68.2011C82.4405 69.1021 82.639 69.9858 82.8099 70.8498ZM37.3305 91.7541C33.959 92.9448 31.2738 92.9789 29.6507 92.0429C26.1967 90.0508 24.7609 82.361 26.7195 72.0458C26.9438 70.8645 27.2108 69.651 27.5186 68.4106C32.0041 69.4025 36.9686 70.1162 42.2747 70.5464C45.3045 74.8096 48.4772 78.7281 51.6744 82.1593C50.9759 82.8336 50.2801 83.4757 49.5882 84.0806C45.3398 87.7942 41.0825 90.4289 37.3305 91.7541ZM21.5355 61.9124C16.1963 60.0875 11.7869 57.7157 8.76453 55.1276C6.04871 52.8017 4.67755 50.4927 4.67755 48.6191C4.67755 44.6319 10.622 39.5462 20.5363 36.0895C21.7392 35.6701 22.9985 35.2748 24.3054 34.9035C25.6755 39.3606 27.473 44.0206 29.6421 48.7329C27.4449 53.5151 25.6219 58.2494 24.2383 62.7587C23.3067 62.4909 22.4041 62.2091 21.5355 61.9124ZM26.8302 25.8724C24.7724 15.3556 26.139 7.42218 29.5781 5.43142C33.2414 3.31064 41.3419 6.33442 49.8796 13.9153C50.4253 14.3998 50.9732 14.907 51.5226 15.4317C48.3412 18.8478 45.1975 22.7369 42.1946 26.975C37.0448 27.4523 32.1152 28.219 27.5829 29.2458C27.2979 28.0996 27.0455 26.9734 26.8302 25.8724ZM74.0629 37.5353C72.9794 35.6639 71.8671 33.8366 70.7331 32.0593C74.2268 32.5009 77.5741 33.0872 80.7176 33.8047C79.7738 36.8292 78.5976 39.9916 77.213 43.2334C76.2197 41.3477 75.1692 39.4464 74.0629 37.5353ZM54.8015 18.7747C56.9591 21.1122 59.1198 23.722 61.2451 26.5536C59.1035 26.4524 56.9353 26.3998 54.7493 26.3998C52.5839 26.3998 50.4317 26.4512 48.3033 26.5506C50.4307 23.7454 52.6102 21.1391 54.8015 18.7747ZM35.4168 37.5677C34.3344 39.4445 33.3034 41.3354 32.3257 43.2299C30.9635 39.9993 29.7982 36.8226 28.8463 33.7551C31.9704 33.056 35.302 32.4844 38.7734 32.0511C37.6235 33.8448 36.502 35.6859 35.4168 37.5677ZM38.8734 65.5207C35.2867 65.1206 31.9051 64.5784 28.7818 63.8985C29.7489 60.7763 30.94 57.5317 32.331 54.2316C33.3112 56.1247 34.3463 58.0165 35.4353 59.8973C36.5445 61.8134 37.6938 63.6904 38.8734 65.5207ZM54.9309 78.7932C52.7139 76.4012 50.5025 73.7551 48.3427 70.9089C50.4393 70.9911 52.5769 71.0332 54.7493 71.0332C56.9811 71.0332 59.1875 70.983 61.3591 70.8863C59.2269 73.7838 57.0739 76.4339 54.9309 78.7932ZM77.2576 54.0634C78.7212 57.3992 79.9549 60.6268 80.9345 63.6958C77.7597 64.4201 74.3319 65.0034 70.7203 65.4369C71.857 63.6356 72.979 61.777 74.0816 59.8651C75.1971 57.9309 76.2562 55.9937 77.2576 54.0634ZM70.0297 57.5282C68.318 60.496 66.5608 63.3292 64.7768 66.0035C61.5275 66.2358 58.1707 66.3555 54.7493 66.3555C51.3417 66.3555 48.0272 66.2497 44.8354 66.0425C42.9795 63.3331 41.184 60.4916 39.4833 57.5538C37.787 54.6239 36.2262 51.6693 34.8116 48.7313C36.2258 45.7865 37.7829 42.8286 39.4694 39.904C41.1604 36.9717 42.9397 34.1446 44.7785 31.4521C48.035 31.206 51.3743 31.0775 54.7491 31.0775C58.1391 31.0775 61.4829 31.2069 64.7384 31.4553C66.5491 34.128 68.3167 36.9465 70.0143 39.8793C71.7312 42.845 73.3084 45.7832 74.7347 48.6649C73.3127 51.5961 71.739 54.5639 70.0297 57.5282ZM79.6793 5.29225C83.3461 7.40679 84.772 15.9347 82.4682 27.1174C82.3213 27.831 82.1558 28.5578 81.9761 29.2943C77.4332 28.2461 72.5001 27.4661 67.3353 26.9816C64.3266 22.697 61.2087 18.8018 58.0791 15.4295C58.9205 14.6201 59.7607 13.8482 60.5974 13.1199C68.6814 6.08474 76.2369 3.30714 79.6793 5.29225ZM54.7493 38.8412C60.1493 38.8412 64.5271 43.2188 64.5271 48.6191C64.5271 54.0191 60.1493 58.3969 54.7493 58.3969C49.3492 58.3969 44.9714 54.0191 44.9714 48.6191C44.9714 43.2188 49.3492 38.8412 54.7493 38.8412Z" fill="#00D8FF"/>
</svg>
