<svg width="106" height="79" viewBox="0 0 106 79" fill="none" xmlns="http://www.w3.org/2000/svg">
<path d="M90.5567 45.4311C86.8878 45.4503 83.6991 46.3339 81.029 47.6401C80.0493 45.7 79.0697 43.9712 78.8968 42.7034C78.7047 41.2243 78.4742 40.3214 78.7047 38.5542C78.9352 36.787 79.9725 34.2706 79.9533 34.0785C79.9341 33.8864 79.7228 32.9836 77.6098 32.9644C75.4968 32.9451 73.6719 33.3677 73.4606 33.9248C73.2493 34.4819 72.8459 35.7497 72.577 37.0559C72.212 38.9768 68.351 45.8344 66.1419 49.4265C65.4312 48.0243 64.8165 46.7949 64.6821 45.8152C64.49 44.3361 64.2595 43.4333 64.49 41.6661C64.7205 39.8988 65.7578 37.3824 65.7386 37.1904C65.7193 36.9983 65.508 36.0954 63.395 36.0762C61.282 36.057 59.4572 36.4796 59.2459 37.0367C59.0346 37.5937 58.8041 38.9 58.3623 40.1678C57.9205 41.4356 52.7916 52.8842 51.447 55.8424C50.7555 57.3599 50.16 58.5701 49.7374 59.3961C49.7374 59.3961 49.7182 59.4537 49.6605 59.5497C49.2956 60.2605 49.0843 60.6447 49.0843 60.6447C49.0843 60.6447 49.0843 60.6447 49.0843 60.6639C48.7961 61.1825 48.4888 61.6627 48.3351 61.6627C48.2199 61.6627 48.0086 60.2797 48.3735 58.3972C49.1419 54.4209 50.9668 48.2356 50.9476 48.0243C50.9476 47.909 51.2933 46.8333 49.7566 46.2763C48.2583 45.7192 47.7204 46.6412 47.586 46.6412C47.4515 46.6412 47.3555 46.9678 47.3555 46.9678C47.3555 46.9678 49.0266 40.0141 44.1667 40.0141C41.1317 40.0141 36.9441 43.3373 34.8695 46.3339C33.5633 47.0446 30.778 48.5621 27.8006 50.1949C26.6673 50.8288 25.4955 51.4627 24.4006 52.0582C24.3237 51.9814 24.2469 51.8853 24.1701 51.8085C18.2921 45.5271 7.41975 41.0898 7.88076 32.657C8.05365 29.5836 9.11015 21.5157 28.761 11.7191C44.9351 3.74732 57.8052 5.95637 60.0335 10.8547C63.2222 17.8468 53.1374 30.8321 36.4255 32.7146C30.0481 33.4254 26.7057 30.9666 25.8605 30.0446C24.9769 29.0841 24.8424 29.0265 24.5158 29.2186C23.978 29.5067 24.3237 30.3711 24.5158 30.8706C25.0153 32.1768 27.0706 34.4819 30.5475 35.6152C33.6209 36.6141 41.0933 37.1711 50.1408 33.6751C60.264 29.7564 68.1781 18.8649 65.8538 9.74056C63.5295 0.481778 48.1622 -2.57247 33.6209 2.59478C24.9769 5.66823 15.6028 10.5089 8.86043 16.8095C0.850236 24.3011 -0.417564 30.8129 0.101082 33.5406C1.96436 43.222 15.3147 49.5226 20.6548 54.1904C20.3859 54.3441 20.1362 54.4785 19.9249 54.5938C17.2548 55.9192 7.07398 61.2401 4.53838 66.8684C1.65702 73.2458 4.9994 77.8176 7.20845 78.4323C14.0661 80.334 21.1158 76.9147 24.9 71.2673C28.6842 65.6198 28.2232 58.2819 26.4752 54.9203C26.456 54.8819 26.4367 54.8435 26.3983 54.8051C27.0899 54.4017 27.8006 53.9791 28.4921 53.5757C29.856 52.7689 31.2006 52.0198 32.3531 51.4051C31.7 53.1915 31.2198 55.3237 30.9893 58.3972C30.7012 62.0085 32.1803 66.6955 34.1204 68.5396C34.9848 69.3464 36.0029 69.3656 36.656 69.3656C38.9227 69.3656 39.9407 67.4831 41.0741 65.2548C42.4571 62.5271 43.7057 59.3576 43.7057 59.3576C43.7057 59.3576 42.1498 67.9249 46.3758 67.9249C47.9125 67.9249 49.4685 65.9272 50.16 64.9091V64.9283C50.16 64.9283 50.1984 64.8707 50.2752 64.7362C50.4289 64.4865 50.525 64.3328 50.525 64.3328V64.2944C51.1396 63.2187 52.5227 60.7791 54.5781 56.726C57.2289 51.5011 59.7837 44.97 59.7837 44.97C59.7837 44.97 60.0142 46.5644 60.8018 49.2152C61.2628 50.7712 62.2233 52.4808 62.9917 54.1328C62.377 54.9972 61.9928 55.4774 61.9928 55.4774C61.9928 55.4774 61.9928 55.4774 62.012 55.4966C61.5126 56.1497 60.9747 56.8605 60.3792 57.552C58.2854 60.0492 55.7882 62.9113 55.4425 63.7373C55.0391 64.717 55.1351 65.4277 55.9035 66.004C56.4606 66.4266 57.4594 66.4842 58.4775 66.4266C60.36 66.2921 61.6854 65.8311 62.3385 65.543C63.3566 65.178 64.5476 64.6209 65.6617 63.7949C67.7171 62.2774 68.9657 60.1068 68.8504 57.2446C68.7928 55.6695 68.2742 54.0944 67.6403 52.6153C67.8323 52.3463 68.0052 52.0774 68.1973 51.8085C71.4437 47.0638 73.9601 41.8582 73.9601 41.8582C73.9601 41.8582 74.1906 43.4525 74.9781 46.1034C75.3623 47.448 76.1499 48.9079 76.8414 50.3294C73.7872 52.8073 71.9047 55.6887 71.2324 57.5712C70.0222 61.0673 70.9634 62.6424 72.7499 63.0074C73.5567 63.1803 74.7092 62.7961 75.5544 62.4311C76.6301 62.0853 77.8979 61.4899 79.1081 60.6062C81.1635 59.0887 83.142 56.9757 83.0267 54.1136C82.9691 52.8073 82.6233 51.5203 82.1431 50.2717C84.7363 49.196 88.0787 48.6006 92.3431 49.1C101.487 50.1757 103.292 55.8808 102.947 58.2819C102.601 60.6831 100.68 61.9893 100.046 62.3927C99.4121 62.7961 99.2008 62.9305 99.2584 63.2187C99.3353 63.6413 99.6426 63.6221 100.18 63.5452C100.93 63.4108 104.983 61.6051 105.156 57.187C105.444 51.5395 100.065 45.3734 90.5567 45.4311ZM20.0209 69.2119C16.9859 72.5159 12.7599 73.7645 10.935 72.708C8.97568 71.5746 9.74405 66.6955 13.4706 63.1995C15.7373 61.0673 18.6571 59.0887 20.5972 57.8785C21.039 57.6096 21.6921 57.2254 22.4797 56.7452C22.6141 56.6684 22.691 56.6299 22.691 56.6299C22.8446 56.5339 22.9983 56.4379 23.152 56.3418C24.5158 61.3362 23.2096 65.7351 20.0209 69.2119ZM42.1114 54.1904C41.0549 56.7644 38.8458 63.3531 37.5012 62.9882C36.3486 62.6808 35.6379 57.6865 37.2707 52.7497C38.0967 50.2717 39.8447 47.3135 40.8628 46.161C42.5148 44.3169 44.3396 43.7022 44.7814 44.4514C45.3385 45.4311 42.7645 52.5768 42.1114 54.1904ZM60.3408 62.9113C59.899 63.1418 59.4764 63.2955 59.2843 63.1803C59.1498 63.1034 59.4764 62.7961 59.4764 62.7961C59.4764 62.7961 61.7623 60.3373 62.6651 59.2232C63.1838 58.5701 63.7984 57.8017 64.4515 56.9373V57.187C64.4515 60.126 61.6086 62.1045 60.3408 62.9113ZM74.4019 59.7034C74.0753 59.4729 74.1329 58.7045 75.2279 56.3034C75.6505 55.3622 76.6493 53.787 78.3589 52.2695C78.551 52.8842 78.6855 53.4797 78.6663 54.0367C78.6471 57.7441 75.9962 59.1271 74.4019 59.7034Z" fill="#CD6799"/>
</svg>
