<svg width="99" height="60" viewBox="0 0 99 60" fill="none" xmlns="http://www.w3.org/2000/svg">
<path d="M49.1359 0.000732422C36.0667 0.000732422 27.8985 6.56209 24.6312 19.6848C29.5321 13.1234 35.2499 10.6629 41.7845 12.3033C45.5128 13.2392 48.1776 15.955 51.1273 18.9614C55.9324 23.8587 61.4937 29.5268 73.6406 29.5268C86.7097 29.5268 94.878 22.9655 98.1453 9.84277C93.2443 16.4041 87.5266 18.8646 80.992 17.2243C77.2636 16.2884 74.5988 13.5725 71.6491 10.5662C66.844 5.66883 61.2828 0.000732422 49.1359 0.000732422ZM24.6312 29.5268C11.562 29.5268 3.39376 36.0882 0.126465 49.2109C5.0274 42.6495 10.7452 40.189 17.2798 41.8294C21.0081 42.7653 23.6729 45.4811 26.6226 48.4875C31.4277 53.3848 36.989 59.0529 49.1359 59.0529C62.205 59.0529 70.3733 52.4916 73.6406 39.3689C68.7396 45.9302 63.0219 48.3907 56.4873 46.7504C52.7589 45.8145 50.0941 43.0986 47.1444 40.0923C42.3394 35.1949 36.7781 29.5268 24.6312 29.5268Z" fill="url(#paint0_linear_12:2323)"/>
<defs>
<linearGradient id="paint0_linear_12:2323" x1="-2.59628" y1="18.8974" x2="82.2314" y2="67.6075" gradientUnits="userSpaceOnUse">
<stop stop-color="#2298BD"/>
<stop offset="1" stop-color="#0ED7B5"/>
</linearGradient>
</defs>
</svg>
